<svg width="38" height="38" xmlns="http://www.w3.org/2000/svg" xmlns:xlink="http://www.w3.org/1999/xlink" xml:space="preserve" overflow="hidden"><g transform="translate(-150 -87)"><path d="M180.875 94.5208C181.312 94.5208 181.667 94.8753 181.667 95.3125L181.667 111.146C181.667 111.583 181.312 111.938 180.875 111.938L176.125 111.938 176.125 116.36 172.133 112.367 171.901 112.135 157.125 112.135C156.688 112.135 156.333 111.781 156.333 111.344L156.333 95.3125C156.333 94.8753 156.688 94.5208 157.125 94.5208L180.875 94.5208M180.875 93.7292 157.125 93.7292C156.251 93.7292 155.542 94.4381 155.542 95.3125L155.542 111.344C155.542 112.218 156.251 112.927 157.125 112.927L171.573 112.927 176.917 118.271 176.917 112.729 180.875 112.729C181.749 112.729 182.458 112.02 182.458 111.146L182.458 95.3125C182.458 94.4381 181.749 93.7292 180.875 93.7292Z" fill="#FFFFFF"/><path d="M176.521 103.229C176.521 103.885 175.989 104.417 175.333 104.417 174.677 104.417 174.146 103.885 174.146 103.229 174.146 102.573 174.677 102.042 175.333 102.042 175.989 102.042 176.521 102.573 176.521 103.229Z" fill="#FFFFFF"/><path d="M170.188 103.229C170.188 103.885 169.656 104.417 169 104.417 168.344 104.417 167.812 103.885 167.812 103.229 167.812 102.573 168.344 102.042 169 102.042 169.656 102.042 170.188 102.573 170.188 103.229Z" fill="#FFFFFF"/><path d="M163.854 103.229C163.854 103.885 163.323 104.417 162.667 104.417 162.011 104.417 161.479 103.885 161.479 103.229 161.479 102.573 162.011 102.042 162.667 102.042 163.323 102.042 163.854 102.573 163.854 103.229Z" fill="#FFFFFF"/></g></svg>