<svg width="38" height="38" xmlns="http://www.w3.org/2000/svg" xmlns:xlink="http://www.w3.org/1999/xlink" xml:space="preserve" overflow="hidden"><g transform="translate(-244 -87)"><path d="M276.458 108.736 276.458 95.3125 251.125 95.3125 251.125 93.6896C251.123 91.9634 249.724 90.5645 247.998 90.5625L247.958 90.5625C247.74 90.5625 247.562 90.7397 247.562 90.9583 247.562 91.177 247.74 91.3542 247.958 91.3542L247.998 91.3542C249.287 91.3555 250.332 92.4003 250.333 93.6896L250.333 113.521C250.335 114.986 251.478 116.197 252.94 116.283 251.731 117.03 251.356 118.615 252.102 119.824 252.849 121.033 254.434 121.409 255.643 120.662 256.852 119.916 257.227 118.331 256.481 117.121 256.274 116.785 255.991 116.501 255.656 116.292L270.342 116.292C269.138 117.046 268.773 118.634 269.527 119.838 270.281 121.042 271.869 121.407 273.073 120.653 274.277 119.899 274.642 118.311 273.888 117.107 273.682 116.777 273.403 116.498 273.073 116.292L276.062 116.292C276.281 116.292 276.458 116.114 276.458 115.896 276.458 115.677 276.281 115.5 276.062 115.5L253.104 115.5C252.012 115.499 251.126 114.613 251.125 113.521L251.125 111.111ZM271.708 120.25C270.725 120.25 269.927 119.453 269.927 118.469 269.927 117.485 270.725 116.688 271.708 116.688 272.692 116.688 273.49 117.485 273.49 118.469 273.488 119.452 272.692 120.249 271.708 120.25ZM254.292 120.25C253.308 120.25 252.51 119.453 252.51 118.469 252.51 117.485 253.308 116.688 254.292 116.688 255.275 116.688 256.073 117.485 256.073 118.469 256.072 119.452 255.275 120.249 254.292 120.25ZM251.125 100.854 256.667 100.854 256.667 104.812 251.125 104.812ZM269.333 104.812 263.792 104.812 263.792 100.854 269.333 100.854ZM270.125 100.854 275.667 100.854 275.667 104.812 270.125 104.812ZM263.792 105.604 269.333 105.604 269.333 108.608 263.792 109.127ZM263 109.202 257.458 109.721 257.458 105.604 263 105.604ZM263.792 100.062 263.792 96.1042 269.333 96.1042 269.333 100.062ZM263 100.062 257.458 100.062 257.458 96.1042 263 96.1042ZM263 100.854 263 104.812 257.458 104.812 257.458 100.854ZM251.125 105.604 256.667 105.604 256.667 109.796 251.125 110.315ZM270.125 108.533 270.125 105.604 275.667 105.604 275.667 108.014ZM275.667 100.062 270.125 100.062 270.125 96.1042 275.667 96.1042ZM256.667 96.1042 256.667 100.062 251.125 100.062 251.125 96.1042Z" fill="#FFFFFF"/></g></svg>