<svg width="38" height="38" xmlns="http://www.w3.org/2000/svg" xmlns:xlink="http://www.w3.org/1999/xlink" xml:space="preserve" overflow="hidden"><g transform="translate(-307 -48)"><path d="M311.725 79.715 322.143 84.0295 322.143 49.6229 311.725 53.9375ZM312.517 54.4675 321.351 50.808 321.351 82.846 312.517 79.1861Z" fill="#FFFFFF"/><path d="M328.771 64.2292 329.562 64.2292 329.562 54.3333 323.625 54.3333 323.625 55.125 328.771 55.125 328.771 64.2292Z" fill="#FFFFFF"/><path d="M328.771 78.0833 323.625 78.0833 323.625 78.875 329.562 78.875 329.562 68.9792 328.771 68.9792 328.771 78.0833Z" fill="#FFFFFF"/><path d="M334.197 60.3868 333.637 60.9465 338.892 66.2016C338.893 66.2031 338.893 66.2057 338.892 66.2072 338.891 66.2079 338.89 66.2083 338.889 66.2083L325.604 66.2083 325.604 67 338.889 67C338.891 67 338.893 67.0018 338.893 67.004 338.893 67.005 338.893 67.006 338.892 67.0067L333.637 72.2618 334.197 72.8215 340.414 66.6042Z" fill="#FFFFFF"/></g></svg>