<svg width="38" height="38" xmlns="http://www.w3.org/2000/svg" xmlns:xlink="http://www.w3.org/1999/xlink" xml:space="preserve" overflow="hidden"><g transform="translate(-320 -89)"><path d="M351.271 114.722C351.251 113.676 350.762 112.694 349.938 112.049 348.502 110.874 346.796 110.142 345.002 109.501L343.055 108.702C342.758 108.581 342.564 108.291 342.564 107.97L342.564 106.803C344.059 105.685 344.94 103.929 344.941 102.062L344.941 101.802 345.808 100.688C346.153 100.243 346.311 99.6816 346.248 99.1223 346.02 96.6089 344.496 94.3969 342.23 93.2873 341.928 93.1434 341.572 93.1737 341.299 93.3664L341.299 93.3664 341.25 93.4005 341.073 93.1586C340.888 92.9003 340.609 92.7244 340.296 92.6686 336.426 91.9982 332.736 94.563 332.016 98.424L332.001 98.5032C331.836 99.3935 331.491 100.241 330.988 100.994 330.867 101.176 330.917 101.421 331.099 101.543 331.163 101.586 331.24 101.609 331.318 101.609L333.066 101.609 333.066 102.062C333.067 103.927 333.946 105.682 335.438 106.8L335.438 107.97C335.438 108.291 335.244 108.58 334.946 108.702L332.988 109.504C331.199 110.146 329.5 110.876 328.073 112.043 327.244 112.691 326.752 113.678 326.734 114.729L326.734 121.473 326.91 121.592C328.761 122.826 333.967 123.443 339.13 123.443 344.316 123.443 349.459 122.821 351.113 121.579L351.271 121.458ZM332.779 98.6469 332.794 98.5677C333.435 95.1325 336.719 92.851 340.162 93.448 340.271 93.4701 340.368 93.5334 340.433 93.6249L340.838 94.1791C340.965 94.3529 341.207 94.3935 341.384 94.2705L341.75 94.0156C341.788 93.987 341.839 93.9807 341.883 93.999 343.901 94.9861 345.257 96.9544 345.461 99.1911 345.507 99.5523 345.407 99.9169 345.184 100.204L344.902 100.567C344.812 100.021 344.571 99.5106 344.208 99.0938L342.864 97.552C342.765 97.439 342.611 97.3915 342.466 97.4293 341.733 97.6193 341.272 98.196 340.785 98.8064 340.033 99.7477 339.181 100.814 337.024 100.814L332.016 100.814C332.381 100.136 332.639 99.4046 332.779 98.6469ZM333.858 102.062 333.858 101.607 337.024 101.607C339.562 101.607 340.626 100.275 341.404 99.3012 341.677 98.8918 342.032 98.5434 342.447 98.2779L343.611 99.6147C343.958 100.013 344.149 100.523 344.15 101.05L344.15 101.667 344.15 102.063C344.147 104.904 341.845 107.206 339.004 107.209L339.004 107.209C336.163 107.206 333.861 104.904 333.858 102.062ZM335.247 109.434C335.842 109.191 336.231 108.612 336.229 107.97L336.229 107.309C337.962 108.23 340.04 108.23 341.773 107.309L341.773 107.968C341.772 108.61 342.16 109.189 342.755 109.432L343.472 109.726 341.655 122.618C340.957 122.645 340.248 122.66 339.535 122.664L340.931 121.212 340.439 112.978 341.312 109.979 336.695 109.979 337.56 112.951 337.078 121.212 338.471 122.662C337.758 122.654 337.046 122.636 336.346 122.604L334.531 109.728ZM339.797 112.354 338.211 112.354 337.75 110.771 340.258 110.771ZM338.341 113.146 339.656 113.146 340.12 120.913 339.004 122.075 337.888 120.913ZM333.779 110.067 335.541 122.563C332.035 122.359 328.933 121.851 327.526 121.041L327.526 114.739C327.542 113.925 327.925 113.161 328.567 112.661 329.896 111.574 331.51 110.878 333.215 110.266ZM344.789 110.265C346.495 110.877 348.109 111.573 349.445 112.666 350.082 113.164 350.462 113.921 350.479 114.729L350.479 121.054C349.176 121.883 346.039 122.391 342.458 122.581L344.225 110.066Z" fill="#FFFFFF"/><path d="M344.939 115.917 348.502 115.917 348.502 116.708 344.939 116.708Z" fill="#FFFFFF"/></g></svg>